# xmcd
#
# Track frame offsets: 
#        150
#        8252
#        17310
#        31537
#        43347
#        56812
#        66150
#        75012
#        87720
#        99500
#        110542
#        121767
#
# Disc length: 1808 seconds
#
# Revision: 0
# Processed by: cddbd v1.4PL0 Copyright (c) Steve Scherf et al.
# Submitted via: ExactAudioCopy v0.90a11
#
DISCID=80070e0c
DTITLE=Magic Sam - Magic Blues Genius
DYEAR=1900
DGENRE=
TTITLE0=Texas Special
TTITLE1=E Street Blues
TTITLE2=Magic Blues
TTITLE3=Southshore Boogie
TTITLE4=Gangster Blues
TTITLE5=Switchboard Blues
TTITLE6=Sam's C Shuffle
TTITLE7=Barbecue Blues
TTITLE8=Funky G Street
TTITLE9=Goin' To Church
TTITLE10=Sam's A Shuffle
TTITLE11=S G Blues
EXTD=
EXTT0=
EXTT1=
EXTT2=
EXTT3=
EXTT4=
EXTT5=
EXTT6=
EXTT7=
EXTT8=
EXTT9=
EXTT10=
EXTT11=
PLAYORDER=
